<svg xmlns="http://www.w3.org/2000/svg" viewBox="0 0 1160 560" role="img" aria-label="Release Ratio To Old Macroquad Baseline">
<defs>
<linearGradient id="panel" x1="0" y1="0" x2="1" y2="1">
<stop offset="0" stop-color="#10181c"/>
<stop offset="1" stop-color="#0d1118"/>
</linearGradient>
<filter id="glow" x="-25%" y="-25%" width="150%" height="150%">
<feGaussianBlur stdDeviation="2.2" result="blur"/>
<feMerge><feMergeNode in="blur"/><feMergeNode in="SourceGraphic"/></feMerge>
</filter>
</defs>
<rect width="100%" height="100%" rx="14" fill="url(#panel)"/>
<rect x="0.5" y="0.5" width="99.9%" height="99.9%" rx="14" fill="none" stroke="#2d5552"/>
<text x="34" y="42" fill="#f7efe4" font-size="22" font-weight="700" font-family="Inter, Segoe UI, sans-serif">Release Ratio To Old Macroquad Baseline</text>
<text x="34" y="68" fill="#8aa09f" font-size="13" font-family="Inter, Segoe UI, sans-serif">1.0 is equal. Lower is faster than v0.73.4 old Macroquad release; higher is slower.</text>
<rect x="88" y="90" width="842" height="380" fill="#0b1215" stroke="#213a3b"/>
<line x1="88.0" y1="90" x2="88.0" y2="470" stroke="#172b2e"/>
<text x="88.0" y="496" fill="#8aa09f" font-size="12" text-anchor="middle" font-family="Inter, Segoe UI, sans-serif">1</text>
<line x1="256.4" y1="90" x2="256.4" y2="470" stroke="#172b2e"/>
<text x="256.4" y="496" fill="#8aa09f" font-size="12" text-anchor="middle" font-family="Inter, Segoe UI, sans-serif">10</text>
<line x1="424.8" y1="90" x2="424.8" y2="470" stroke="#172b2e"/>
<text x="424.8" y="496" fill="#8aa09f" font-size="12" text-anchor="middle" font-family="Inter, Segoe UI, sans-serif">100</text>
<line x1="593.2" y1="90" x2="593.2" y2="470" stroke="#172b2e"/>
<text x="593.2" y="496" fill="#8aa09f" font-size="12" text-anchor="middle" font-family="Inter, Segoe UI, sans-serif">1k</text>
<line x1="761.6" y1="90" x2="761.6" y2="470" stroke="#172b2e"/>
<text x="761.6" y="496" fill="#8aa09f" font-size="12" text-anchor="middle" font-family="Inter, Segoe UI, sans-serif">10k</text>
<line x1="930.0" y1="90" x2="930.0" y2="470" stroke="#172b2e"/>
<text x="930.0" y="496" fill="#8aa09f" font-size="12" text-anchor="middle" font-family="Inter, Segoe UI, sans-serif">100k</text>
<line x1="88" y1="451.0" x2="930" y2="451.0" stroke="#172b2e"/>
<text x="76" y="455.0" fill="#8aa09f" font-size="12" text-anchor="end" font-family="Inter, Segoe UI, sans-serif">0.6</text>
<line x1="88" y1="375.0" x2="930" y2="375.0" stroke="#172b2e"/>
<text x="76" y="379.0" fill="#8aa09f" font-size="12" text-anchor="end" font-family="Inter, Segoe UI, sans-serif">0.8</text>
<line x1="88" y1="299.0" x2="930" y2="299.0" stroke="#d8a85d" stroke-dasharray="5 6"/>
<text x="76" y="303.0" fill="#8aa09f" font-size="12" text-anchor="end" font-family="Inter, Segoe UI, sans-serif">1.0</text>
<line x1="88" y1="223.0" x2="930" y2="223.0" stroke="#172b2e"/>
<text x="76" y="227.0" fill="#8aa09f" font-size="12" text-anchor="end" font-family="Inter, Segoe UI, sans-serif">1.2</text>
<line x1="88" y1="147.0" x2="930" y2="147.0" stroke="#172b2e"/>
<text x="76" y="151.0" fill="#8aa09f" font-size="12" text-anchor="end" font-family="Inter, Segoe UI, sans-serif">1.4</text>
<polyline points="88.0,314.1 138.7,268.5 205.7,302.8 256.4,291.7 307.1,305.9 374.1,309.6 424.8,300.0 475.5,299.6 542.5,303.3 593.2,301.9 643.9,339.2 710.9,502.4 761.6,184.8 812.3,175.7 879.3,160.3" fill="none" stroke="#e08a48" stroke-width="3" stroke-linejoin="round" stroke-linecap="round" filter="url(#glow)" stroke-dasharray="7 5"/>
<polyline points="88.0,283.6 138.7,290.7 205.7,294.8 256.4,288.2 307.1,287.4 374.1,296.6 424.8,308.5 475.5,288.8 542.5,285.7 593.2,299.2 643.9,343.1 710.9,510.5 761.6,305.9 812.3,261.1 879.3,258.4 930.0,253.7" fill="none" stroke="#64dcc5" stroke-width="3" stroke-linejoin="round" stroke-linecap="round" filter="url(#glow)"/>
<line x1="950" y1="120" x2="984" y2="120" stroke="#f1c56b" stroke-width="3"/>
<text x="994" y="124" fill="#dce8e5" font-size="12" font-family="Inter, Segoe UI, sans-serif">v0.73.4 old Macroquad release</text>
<line x1="950" y1="143" x2="984" y2="143" stroke="#e08a48" stroke-width="3" stroke-dasharray="7 5"/>
<text x="994" y="147" fill="#dce8e5" font-size="12" font-family="Inter, Segoe UI, sans-serif">v0.74.8 prior pure-Macroquad release</text>
<line x1="950" y1="166" x2="984" y2="166" stroke="#64dcc5" stroke-width="3"/>
<text x="994" y="170" fill="#dce8e5" font-size="12" font-family="Inter, Segoe UI, sans-serif">v0.74.9 speed_trace release executable</text>
<text x="509.0" y="526" fill="#bac9c8" font-size="13" text-anchor="middle" font-family="Inter, Segoe UI, sans-serif">enemy entities (log scale)</text>
</svg>