<svg xmlns="http://www.w3.org/2000/svg" viewBox="0 0 1160 660" role="img" aria-label="P95 Frame Time">
<defs>
<linearGradient id="panel" x1="0" y1="0" x2="1" y2="1">
<stop offset="0" stop-color="#10181c"/>
<stop offset="1" stop-color="#0d1118"/>
</linearGradient>
<filter id="glow" x="-25%" y="-25%" width="150%" height="150%">
<feGaussianBlur stdDeviation="2.2" result="blur"/>
<feMerge><feMergeNode in="blur"/><feMergeNode in="SourceGraphic"/></feMerge>
</filter>
</defs>
<rect width="100%" height="100%" rx="14" fill="url(#panel)"/>
<rect x="0.5" y="0.5" width="99.9%" height="99.9%" rx="14" fill="none" stroke="#2d5552"/>
<text x="34" y="42" fill="#f7efe4" font-size="22" font-weight="700" font-family="Inter, Segoe UI, sans-serif">P95 Frame Time</text>
<text x="34" y="68" fill="#8aa09f" font-size="13" font-family="Inter, Segoe UI, sans-serif">Tail latency shows hitch risk; the newest release improves mid-ladder but still has a high 50k/100k tail.</text>
<rect x="88" y="92" width="842" height="473" fill="#0b1215" stroke="#213a3b"/>
<line x1="88.0" y1="92" x2="88.0" y2="565" stroke="#172b2e"/>
<text x="88.0" y="591" fill="#8aa09f" font-size="12" text-anchor="middle" font-family="Inter, Segoe UI, sans-serif">1</text>
<line x1="256.4" y1="92" x2="256.4" y2="565" stroke="#172b2e"/>
<text x="256.4" y="591" fill="#8aa09f" font-size="12" text-anchor="middle" font-family="Inter, Segoe UI, sans-serif">10</text>
<line x1="424.8" y1="92" x2="424.8" y2="565" stroke="#172b2e"/>
<text x="424.8" y="591" fill="#8aa09f" font-size="12" text-anchor="middle" font-family="Inter, Segoe UI, sans-serif">100</text>
<line x1="593.2" y1="92" x2="593.2" y2="565" stroke="#172b2e"/>
<text x="593.2" y="591" fill="#8aa09f" font-size="12" text-anchor="middle" font-family="Inter, Segoe UI, sans-serif">1k</text>
<line x1="761.6" y1="92" x2="761.6" y2="565" stroke="#172b2e"/>
<text x="761.6" y="591" fill="#8aa09f" font-size="12" text-anchor="middle" font-family="Inter, Segoe UI, sans-serif">10k</text>
<line x1="930.0" y1="92" x2="930.0" y2="565" stroke="#172b2e"/>
<text x="930.0" y="591" fill="#8aa09f" font-size="12" text-anchor="middle" font-family="Inter, Segoe UI, sans-serif">100k</text>
<line x1="88" y1="531.8" x2="930" y2="531.8" stroke="#172b2e"/>
<text x="76" y="535.8" fill="#8aa09f" font-size="12" text-anchor="end" font-family="Inter, Segoe UI, sans-serif">4</text>
<line x1="88" y1="447.0" x2="930" y2="447.0" stroke="#172b2e"/>
<text x="76" y="451.0" fill="#8aa09f" font-size="12" text-anchor="end" font-family="Inter, Segoe UI, sans-serif">8.33</text>
<line x1="88" y1="366.9" x2="930" y2="366.9" stroke="#172b2e"/>
<text x="76" y="370.9" fill="#8aa09f" font-size="12" text-anchor="end" font-family="Inter, Segoe UI, sans-serif">16.67</text>
<line x1="88" y1="286.8" x2="930" y2="286.8" stroke="#172b2e"/>
<text x="76" y="290.8" fill="#8aa09f" font-size="12" text-anchor="end" font-family="Inter, Segoe UI, sans-serif">33.33</text>
<line x1="88" y1="206.7" x2="930" y2="206.7" stroke="#172b2e"/>
<text x="76" y="210.7" fill="#8aa09f" font-size="12" text-anchor="end" font-family="Inter, Segoe UI, sans-serif">66.67</text>
<line x1="88" y1="138.8" x2="930" y2="138.8" stroke="#172b2e"/>
<text x="76" y="142.8" fill="#8aa09f" font-size="12" text-anchor="end" font-family="Inter, Segoe UI, sans-serif">120</text>
<line x1="88" y1="447.0" x2="930" y2="447.0" stroke="#d8a85d" stroke-width="1.3" stroke-dasharray="5 6"/>
<text x="942" y="451.0" fill="#d8a85d" font-size="12" font-family="Inter, Segoe UI, sans-serif">120 fps</text>
<line x1="88" y1="366.9" x2="930" y2="366.9" stroke="#d8a85d" stroke-width="1.3" stroke-dasharray="5 6"/>
<text x="942" y="370.9" fill="#d8a85d" font-size="12" font-family="Inter, Segoe UI, sans-serif">60 fps</text>
<line x1="88" y1="286.8" x2="930" y2="286.8" stroke="#d8a85d" stroke-width="1.3" stroke-dasharray="5 6"/>
<text x="942" y="290.8" fill="#d8a85d" font-size="12" font-family="Inter, Segoe UI, sans-serif">30 fps</text>
<polyline points="88.0,533.5 138.7,526.5 205.7,527.2 256.4,533.2 307.1,519.2 374.1,529.2 424.8,487.7 475.5,468.5 542.5,507.0 593.2,476.0 643.9,398.6 710.9,264.7 761.6,301.5 812.3,247.8 879.3,139.1 930.0,180.1" fill="none" stroke="#f1c56b" stroke-width="3" stroke-linejoin="round" stroke-linecap="round" filter="url(#glow)"/>
<circle cx="88.0" cy="533.5" r="3.2" fill="#f1c56b" stroke="#081014"/>
<circle cx="138.7" cy="526.5" r="3.2" fill="#f1c56b" stroke="#081014"/>
<circle cx="205.7" cy="527.2" r="3.2" fill="#f1c56b" stroke="#081014"/>
<circle cx="256.4" cy="533.2" r="3.2" fill="#f1c56b" stroke="#081014"/>
<circle cx="307.1" cy="519.2" r="3.2" fill="#f1c56b" stroke="#081014"/>
<circle cx="374.1" cy="529.2" r="3.2" fill="#f1c56b" stroke="#081014"/>
<circle cx="424.8" cy="487.7" r="3.2" fill="#f1c56b" stroke="#081014"/>
<circle cx="475.5" cy="468.5" r="3.2" fill="#f1c56b" stroke="#081014"/>
<circle cx="542.5" cy="507.0" r="3.2" fill="#f1c56b" stroke="#081014"/>
<circle cx="593.2" cy="476.0" r="3.2" fill="#f1c56b" stroke="#081014"/>
<circle cx="643.9" cy="398.6" r="3.2" fill="#f1c56b" stroke="#081014"/>
<circle cx="710.9" cy="264.7" r="3.2" fill="#f1c56b" stroke="#081014"/>
<circle cx="761.6" cy="301.5" r="3.2" fill="#f1c56b" stroke="#081014"/>
<circle cx="812.3" cy="247.8" r="3.2" fill="#f1c56b" stroke="#081014"/>
<circle cx="879.3" cy="139.1" r="3.2" fill="#f1c56b" stroke="#081014"/>
<circle cx="930.0" cy="180.1" r="3.2" fill="#f1c56b" stroke="#081014"/>
<polyline points="88.0,519.2 138.7,521.4 205.7,521.9 256.4,530.0 307.1,520.5 374.1,532.2 424.8,482.2 475.5,460.6 542.5,499.0 593.2,373.4 643.9,426.2 710.9,364.2 761.6,301.6 812.3,226.5 879.3,144.0 930.0,145.8" fill="none" stroke="#b792ff" stroke-width="3" stroke-linejoin="round" stroke-linecap="round" filter="url(#glow)"/>
<circle cx="88.0" cy="519.2" r="3.2" fill="#b792ff" stroke="#081014"/>
<circle cx="138.7" cy="521.4" r="3.2" fill="#b792ff" stroke="#081014"/>
<circle cx="205.7" cy="521.9" r="3.2" fill="#b792ff" stroke="#081014"/>
<circle cx="256.4" cy="530.0" r="3.2" fill="#b792ff" stroke="#081014"/>
<circle cx="307.1" cy="520.5" r="3.2" fill="#b792ff" stroke="#081014"/>
<circle cx="374.1" cy="532.2" r="3.2" fill="#b792ff" stroke="#081014"/>
<circle cx="424.8" cy="482.2" r="3.2" fill="#b792ff" stroke="#081014"/>
<circle cx="475.5" cy="460.6" r="3.2" fill="#b792ff" stroke="#081014"/>
<circle cx="542.5" cy="499.0" r="3.2" fill="#b792ff" stroke="#081014"/>
<circle cx="593.2" cy="373.4" r="3.2" fill="#b792ff" stroke="#081014"/>
<circle cx="643.9" cy="426.2" r="3.2" fill="#b792ff" stroke="#081014"/>
<circle cx="710.9" cy="364.2" r="3.2" fill="#b792ff" stroke="#081014"/>
<circle cx="761.6" cy="301.6" r="3.2" fill="#b792ff" stroke="#081014"/>
<circle cx="812.3" cy="226.5" r="3.2" fill="#b792ff" stroke="#081014"/>
<circle cx="879.3" cy="144.0" r="3.2" fill="#b792ff" stroke="#081014"/>
<circle cx="930.0" cy="145.8" r="3.2" fill="#b792ff" stroke="#081014"/>
<polyline points="88.0,522.8 138.7,509.2 205.7,517.3 256.4,513.7 307.1,512.9 374.1,520.9 424.8,480.2 475.5,467.1 542.5,494.0 593.2,467.0 643.9,429.9 710.9,334.4 761.6,268.6 812.3,215.2 879.3,134.3" fill="none" stroke="#e08a48" stroke-width="3" stroke-linejoin="round" stroke-linecap="round" filter="url(#glow)" stroke-dasharray="7 5"/>
<circle cx="88.0" cy="522.8" r="3.2" fill="#e08a48" stroke="#081014"/>
<circle cx="138.7" cy="509.2" r="3.2" fill="#e08a48" stroke="#081014"/>
<circle cx="205.7" cy="517.3" r="3.2" fill="#e08a48" stroke="#081014"/>
<circle cx="256.4" cy="513.7" r="3.2" fill="#e08a48" stroke="#081014"/>
<circle cx="307.1" cy="512.9" r="3.2" fill="#e08a48" stroke="#081014"/>
<circle cx="374.1" cy="520.9" r="3.2" fill="#e08a48" stroke="#081014"/>
<circle cx="424.8" cy="480.2" r="3.2" fill="#e08a48" stroke="#081014"/>
<circle cx="475.5" cy="467.1" r="3.2" fill="#e08a48" stroke="#081014"/>
<circle cx="542.5" cy="494.0" r="3.2" fill="#e08a48" stroke="#081014"/>
<circle cx="593.2" cy="467.0" r="3.2" fill="#e08a48" stroke="#081014"/>
<circle cx="643.9" cy="429.9" r="3.2" fill="#e08a48" stroke="#081014"/>
<circle cx="710.9" cy="334.4" r="3.2" fill="#e08a48" stroke="#081014"/>
<circle cx="761.6" cy="268.6" r="3.2" fill="#e08a48" stroke="#081014"/>
<circle cx="812.3" cy="215.2" r="3.2" fill="#e08a48" stroke="#081014"/>
<circle cx="879.3" cy="134.3" r="3.2" fill="#e08a48" stroke="#081014"/>
<text x="887.3" y="126.3" fill="#e08a48" font-size="12" font-family="Inter, Segoe UI, sans-serif">partial</text>
<polyline points="88.0,524.8 138.7,519.7 205.7,529.1 256.4,531.3 307.1,524.6 374.1,532.7 424.8,487.8 475.5,467.4 542.5,502.1 593.2,470.4 643.9,428.7 710.9,348.5 761.6,277.7 812.3,212.5 879.3,172.8" fill="none" stroke="#78a8ff" stroke-width="3" stroke-linejoin="round" stroke-linecap="round" filter="url(#glow)"/>
<circle cx="88.0" cy="524.8" r="3.2" fill="#78a8ff" stroke="#081014"/>
<circle cx="138.7" cy="519.7" r="3.2" fill="#78a8ff" stroke="#081014"/>
<circle cx="205.7" cy="529.1" r="3.2" fill="#78a8ff" stroke="#081014"/>
<circle cx="256.4" cy="531.3" r="3.2" fill="#78a8ff" stroke="#081014"/>
<circle cx="307.1" cy="524.6" r="3.2" fill="#78a8ff" stroke="#081014"/>
<circle cx="374.1" cy="532.7" r="3.2" fill="#78a8ff" stroke="#081014"/>
<circle cx="424.8" cy="487.8" r="3.2" fill="#78a8ff" stroke="#081014"/>
<circle cx="475.5" cy="467.4" r="3.2" fill="#78a8ff" stroke="#081014"/>
<circle cx="542.5" cy="502.1" r="3.2" fill="#78a8ff" stroke="#081014"/>
<circle cx="593.2" cy="470.4" r="3.2" fill="#78a8ff" stroke="#081014"/>
<circle cx="643.9" cy="428.7" r="3.2" fill="#78a8ff" stroke="#081014"/>
<circle cx="710.9" cy="348.5" r="3.2" fill="#78a8ff" stroke="#081014"/>
<circle cx="761.6" cy="277.7" r="3.2" fill="#78a8ff" stroke="#081014"/>
<circle cx="812.3" cy="212.5" r="3.2" fill="#78a8ff" stroke="#081014"/>
<circle cx="879.3" cy="172.8" r="3.2" fill="#78a8ff" stroke="#081014"/>
<text x="887.3" y="164.8" fill="#78a8ff" font-size="12" font-family="Inter, Segoe UI, sans-serif">partial</text>
<polyline points="88.0,516.0 138.7,518.8 205.7,527.9 256.4,528.0 307.1,516.2 374.1,522.7 424.8,496.4 475.5,469.3 542.5,489.6 593.2,466.3 643.9,433.1 710.9,361.6 761.6,311.4 812.3,222.8 879.3,153.1 930.0,145.1" fill="none" stroke="#64dcc5" stroke-width="3" stroke-linejoin="round" stroke-linecap="round" filter="url(#glow)"/>
<circle cx="88.0" cy="516.0" r="3.2" fill="#64dcc5" stroke="#081014"/>
<circle cx="138.7" cy="518.8" r="3.2" fill="#64dcc5" stroke="#081014"/>
<circle cx="205.7" cy="527.9" r="3.2" fill="#64dcc5" stroke="#081014"/>
<circle cx="256.4" cy="528.0" r="3.2" fill="#64dcc5" stroke="#081014"/>
<circle cx="307.1" cy="516.2" r="3.2" fill="#64dcc5" stroke="#081014"/>
<circle cx="374.1" cy="522.7" r="3.2" fill="#64dcc5" stroke="#081014"/>
<circle cx="424.8" cy="496.4" r="3.2" fill="#64dcc5" stroke="#081014"/>
<circle cx="475.5" cy="469.3" r="3.2" fill="#64dcc5" stroke="#081014"/>
<circle cx="542.5" cy="489.6" r="3.2" fill="#64dcc5" stroke="#081014"/>
<circle cx="593.2" cy="466.3" r="3.2" fill="#64dcc5" stroke="#081014"/>
<circle cx="643.9" cy="433.1" r="3.2" fill="#64dcc5" stroke="#081014"/>
<circle cx="710.9" cy="361.6" r="3.2" fill="#64dcc5" stroke="#081014"/>
<circle cx="761.6" cy="311.4" r="3.2" fill="#64dcc5" stroke="#081014"/>
<circle cx="812.3" cy="222.8" r="3.2" fill="#64dcc5" stroke="#081014"/>
<circle cx="879.3" cy="153.1" r="3.2" fill="#64dcc5" stroke="#081014"/>
<circle cx="930.0" cy="145.1" r="3.2" fill="#64dcc5" stroke="#081014"/>
<text x="509.0" y="630" fill="#bac9c8" font-size="13" text-anchor="middle" font-family="Inter, Segoe UI, sans-serif">enemy entities (log scale)</text>
<text transform="translate(28 328.5) rotate(-90)" fill="#bac9c8" font-size="13" text-anchor="middle" font-family="Inter, Segoe UI, sans-serif">p95 frame time (ms, log scale)</text>
<line x1="950" y1="116" x2="984" y2="116" stroke="#f1c56b" stroke-width="3"/>
<text x="994" y="120" fill="#dce8e5" font-size="12" font-family="Inter, Segoe UI, sans-serif">v0.73.4 old Macroquad release</text>
<line x1="950" y1="139" x2="984" y2="139" stroke="#b792ff" stroke-width="3"/>
<text x="994" y="143" fill="#dce8e5" font-size="12" font-family="Inter, Segoe UI, sans-serif">v0.73.4 old Macroquad debug</text>
<line x1="950" y1="162" x2="984" y2="162" stroke="#e08a48" stroke-width="3" stroke-dasharray="7 5"/>
<text x="994" y="166" fill="#dce8e5" font-size="12" font-family="Inter, Segoe UI, sans-serif">v0.74.8 prior pure-Macroquad release</text>
<line x1="950" y1="185" x2="984" y2="185" stroke="#78a8ff" stroke-width="3"/>
<text x="994" y="189" fill="#dce8e5" font-size="12" font-family="Inter, Segoe UI, sans-serif">v0.74.9 debug executable</text>
<line x1="950" y1="208" x2="984" y2="208" stroke="#64dcc5" stroke-width="3"/>
<text x="994" y="212" fill="#dce8e5" font-size="12" font-family="Inter, Segoe UI, sans-serif">v0.74.9 speed_trace release executable</text>
</svg>