<svg xmlns="http://www.w3.org/2000/svg" viewBox="0 0 1160 660" role="img" aria-label="Average Frame Time Across The Stress Ladder">
<defs>
<linearGradient id="panel" x1="0" y1="0" x2="1" y2="1">
<stop offset="0" stop-color="#10181c"/>
<stop offset="1" stop-color="#0d1118"/>
</linearGradient>
<filter id="glow" x="-25%" y="-25%" width="150%" height="150%">
<feGaussianBlur stdDeviation="2.2" result="blur"/>
<feMerge><feMergeNode in="blur"/><feMergeNode in="SourceGraphic"/></feMerge>
</filter>
</defs>
<rect width="100%" height="100%" rx="14" fill="url(#panel)"/>
<rect x="0.5" y="0.5" width="99.9%" height="99.9%" rx="14" fill="none" stroke="#2d5552"/>
<text x="34" y="42" fill="#f7efe4" font-size="22" font-weight="700" font-family="Inter, Segoe UI, sans-serif">Average Frame Time Across The Stress Ladder</text>
<text x="34" y="68" fill="#8aa09f" font-size="13" font-family="Inter, Segoe UI, sans-serif">Debug/release old Macroquad baselines vs the newest executable stress runs.</text>
<rect x="88" y="92" width="842" height="473" fill="#0b1215" stroke="#213a3b"/>
<line x1="88.0" y1="92" x2="88.0" y2="565" stroke="#172b2e"/>
<text x="88.0" y="591" fill="#8aa09f" font-size="12" text-anchor="middle" font-family="Inter, Segoe UI, sans-serif">1</text>
<line x1="256.4" y1="92" x2="256.4" y2="565" stroke="#172b2e"/>
<text x="256.4" y="591" fill="#8aa09f" font-size="12" text-anchor="middle" font-family="Inter, Segoe UI, sans-serif">10</text>
<line x1="424.8" y1="92" x2="424.8" y2="565" stroke="#172b2e"/>
<text x="424.8" y="591" fill="#8aa09f" font-size="12" text-anchor="middle" font-family="Inter, Segoe UI, sans-serif">100</text>
<line x1="593.2" y1="92" x2="593.2" y2="565" stroke="#172b2e"/>
<text x="593.2" y="591" fill="#8aa09f" font-size="12" text-anchor="middle" font-family="Inter, Segoe UI, sans-serif">1k</text>
<line x1="761.6" y1="92" x2="761.6" y2="565" stroke="#172b2e"/>
<text x="761.6" y="591" fill="#8aa09f" font-size="12" text-anchor="middle" font-family="Inter, Segoe UI, sans-serif">10k</text>
<line x1="930.0" y1="92" x2="930.0" y2="565" stroke="#172b2e"/>
<text x="930.0" y="591" fill="#8aa09f" font-size="12" text-anchor="middle" font-family="Inter, Segoe UI, sans-serif">100k</text>
<line x1="88" y1="530.8" x2="930" y2="530.8" stroke="#172b2e"/>
<text x="76" y="534.8" fill="#8aa09f" font-size="12" text-anchor="end" font-family="Inter, Segoe UI, sans-serif">4</text>
<line x1="88" y1="443.5" x2="930" y2="443.5" stroke="#172b2e"/>
<text x="76" y="447.5" fill="#8aa09f" font-size="12" text-anchor="end" font-family="Inter, Segoe UI, sans-serif">8.33</text>
<line x1="88" y1="361.0" x2="930" y2="361.0" stroke="#172b2e"/>
<text x="76" y="365.0" fill="#8aa09f" font-size="12" text-anchor="end" font-family="Inter, Segoe UI, sans-serif">16.67</text>
<line x1="88" y1="278.6" x2="930" y2="278.6" stroke="#172b2e"/>
<text x="76" y="282.6" fill="#8aa09f" font-size="12" text-anchor="end" font-family="Inter, Segoe UI, sans-serif">33.33</text>
<line x1="88" y1="196.1" x2="930" y2="196.1" stroke="#172b2e"/>
<text x="76" y="200.1" fill="#8aa09f" font-size="12" text-anchor="end" font-family="Inter, Segoe UI, sans-serif">66.67</text>
<line x1="88" y1="126.2" x2="930" y2="126.2" stroke="#172b2e"/>
<text x="76" y="130.2" fill="#8aa09f" font-size="12" text-anchor="end" font-family="Inter, Segoe UI, sans-serif">120</text>
<line x1="88" y1="443.5" x2="930" y2="443.5" stroke="#d8a85d" stroke-width="1.3" stroke-dasharray="5 6"/>
<text x="942" y="447.5" fill="#d8a85d" font-size="12" font-family="Inter, Segoe UI, sans-serif">120 fps</text>
<line x1="88" y1="361.0" x2="930" y2="361.0" stroke="#d8a85d" stroke-width="1.3" stroke-dasharray="5 6"/>
<text x="942" y="365.0" fill="#d8a85d" font-size="12" font-family="Inter, Segoe UI, sans-serif">60 fps</text>
<line x1="88" y1="278.6" x2="930" y2="278.6" stroke="#d8a85d" stroke-width="1.3" stroke-dasharray="5 6"/>
<text x="942" y="282.6" fill="#d8a85d" font-size="12" font-family="Inter, Segoe UI, sans-serif">30 fps</text>
<polyline points="88.0,546.7 138.7,542.8 205.7,545.3 256.4,548.4 307.1,544.0 374.1,545.8 424.8,529.3 475.5,518.1 542.5,527.3 593.2,507.5 643.9,468.7 710.9,323.5 761.6,374.4 812.3,319.4 879.3,241.7 930.0,216.9" fill="none" stroke="#f1c56b" stroke-width="3" stroke-linejoin="round" stroke-linecap="round" filter="url(#glow)"/>
<circle cx="88.0" cy="546.7" r="3.2" fill="#f1c56b" stroke="#081014"/>
<circle cx="138.7" cy="542.8" r="3.2" fill="#f1c56b" stroke="#081014"/>
<circle cx="205.7" cy="545.3" r="3.2" fill="#f1c56b" stroke="#081014"/>
<circle cx="256.4" cy="548.4" r="3.2" fill="#f1c56b" stroke="#081014"/>
<circle cx="307.1" cy="544.0" r="3.2" fill="#f1c56b" stroke="#081014"/>
<circle cx="374.1" cy="545.8" r="3.2" fill="#f1c56b" stroke="#081014"/>
<circle cx="424.8" cy="529.3" r="3.2" fill="#f1c56b" stroke="#081014"/>
<circle cx="475.5" cy="518.1" r="3.2" fill="#f1c56b" stroke="#081014"/>
<circle cx="542.5" cy="527.3" r="3.2" fill="#f1c56b" stroke="#081014"/>
<circle cx="593.2" cy="507.5" r="3.2" fill="#f1c56b" stroke="#081014"/>
<circle cx="643.9" cy="468.7" r="3.2" fill="#f1c56b" stroke="#081014"/>
<circle cx="710.9" cy="323.5" r="3.2" fill="#f1c56b" stroke="#081014"/>
<circle cx="761.6" cy="374.4" r="3.2" fill="#f1c56b" stroke="#081014"/>
<circle cx="812.3" cy="319.4" r="3.2" fill="#f1c56b" stroke="#081014"/>
<circle cx="879.3" cy="241.7" r="3.2" fill="#f1c56b" stroke="#081014"/>
<circle cx="930.0" cy="216.9" r="3.2" fill="#f1c56b" stroke="#081014"/>
<polyline points="88.0,539.4 138.7,536.1 205.7,539.4 256.4,542.7 307.1,540.4 374.1,544.2 424.8,524.7 475.5,512.7 542.5,521.8 593.2,458.7 643.9,473.2 710.9,406.4 761.6,333.7 812.3,261.1 879.3,185.4 930.0,153.9" fill="none" stroke="#b792ff" stroke-width="3" stroke-linejoin="round" stroke-linecap="round" filter="url(#glow)"/>
<circle cx="88.0" cy="539.4" r="3.2" fill="#b792ff" stroke="#081014"/>
<circle cx="138.7" cy="536.1" r="3.2" fill="#b792ff" stroke="#081014"/>
<circle cx="205.7" cy="539.4" r="3.2" fill="#b792ff" stroke="#081014"/>
<circle cx="256.4" cy="542.7" r="3.2" fill="#b792ff" stroke="#081014"/>
<circle cx="307.1" cy="540.4" r="3.2" fill="#b792ff" stroke="#081014"/>
<circle cx="374.1" cy="544.2" r="3.2" fill="#b792ff" stroke="#081014"/>
<circle cx="424.8" cy="524.7" r="3.2" fill="#b792ff" stroke="#081014"/>
<circle cx="475.5" cy="512.7" r="3.2" fill="#b792ff" stroke="#081014"/>
<circle cx="542.5" cy="521.8" r="3.2" fill="#b792ff" stroke="#081014"/>
<circle cx="593.2" cy="458.7" r="3.2" fill="#b792ff" stroke="#081014"/>
<circle cx="643.9" cy="473.2" r="3.2" fill="#b792ff" stroke="#081014"/>
<circle cx="710.9" cy="406.4" r="3.2" fill="#b792ff" stroke="#081014"/>
<circle cx="761.6" cy="333.7" r="3.2" fill="#b792ff" stroke="#081014"/>
<circle cx="812.3" cy="261.1" r="3.2" fill="#b792ff" stroke="#081014"/>
<circle cx="879.3" cy="185.4" r="3.2" fill="#b792ff" stroke="#081014"/>
<circle cx="930.0" cy="153.9" r="3.2" fill="#b792ff" stroke="#081014"/>
<polyline points="88.0,551.6 138.7,533.6 205.7,546.5 256.4,546.2 307.1,546.2 374.1,549.1 424.8,529.6 475.5,518.3 542.5,528.7 593.2,508.4 643.9,482.0 710.9,414.7 761.6,343.2 812.3,286.0 879.3,204.6" fill="none" stroke="#e08a48" stroke-width="3" stroke-linejoin="round" stroke-linecap="round" filter="url(#glow)" stroke-dasharray="7 5"/>
<circle cx="88.0" cy="551.6" r="3.2" fill="#e08a48" stroke="#081014"/>
<circle cx="138.7" cy="533.6" r="3.2" fill="#e08a48" stroke="#081014"/>
<circle cx="205.7" cy="546.5" r="3.2" fill="#e08a48" stroke="#081014"/>
<circle cx="256.4" cy="546.2" r="3.2" fill="#e08a48" stroke="#081014"/>
<circle cx="307.1" cy="546.2" r="3.2" fill="#e08a48" stroke="#081014"/>
<circle cx="374.1" cy="549.1" r="3.2" fill="#e08a48" stroke="#081014"/>
<circle cx="424.8" cy="529.6" r="3.2" fill="#e08a48" stroke="#081014"/>
<circle cx="475.5" cy="518.3" r="3.2" fill="#e08a48" stroke="#081014"/>
<circle cx="542.5" cy="528.7" r="3.2" fill="#e08a48" stroke="#081014"/>
<circle cx="593.2" cy="508.4" r="3.2" fill="#e08a48" stroke="#081014"/>
<circle cx="643.9" cy="482.0" r="3.2" fill="#e08a48" stroke="#081014"/>
<circle cx="710.9" cy="414.7" r="3.2" fill="#e08a48" stroke="#081014"/>
<circle cx="761.6" cy="343.2" r="3.2" fill="#e08a48" stroke="#081014"/>
<circle cx="812.3" cy="286.0" r="3.2" fill="#e08a48" stroke="#081014"/>
<circle cx="879.3" cy="204.6" r="3.2" fill="#e08a48" stroke="#081014"/>
<text x="887.3" y="196.6" fill="#e08a48" font-size="12" font-family="Inter, Segoe UI, sans-serif">partial</text>
<polyline points="88.0,545.2 138.7,539.6 205.7,544.6 256.4,547.4 307.1,544.7 374.1,548.3 424.8,528.7 475.5,516.5 542.5,526.0 593.2,506.3 643.9,482.3 710.9,400.8 761.6,319.1 812.3,246.8 879.3,178.3" fill="none" stroke="#78a8ff" stroke-width="3" stroke-linejoin="round" stroke-linecap="round" filter="url(#glow)"/>
<circle cx="88.0" cy="545.2" r="3.2" fill="#78a8ff" stroke="#081014"/>
<circle cx="138.7" cy="539.6" r="3.2" fill="#78a8ff" stroke="#081014"/>
<circle cx="205.7" cy="544.6" r="3.2" fill="#78a8ff" stroke="#081014"/>
<circle cx="256.4" cy="547.4" r="3.2" fill="#78a8ff" stroke="#081014"/>
<circle cx="307.1" cy="544.7" r="3.2" fill="#78a8ff" stroke="#081014"/>
<circle cx="374.1" cy="548.3" r="3.2" fill="#78a8ff" stroke="#081014"/>
<circle cx="424.8" cy="528.7" r="3.2" fill="#78a8ff" stroke="#081014"/>
<circle cx="475.5" cy="516.5" r="3.2" fill="#78a8ff" stroke="#081014"/>
<circle cx="542.5" cy="526.0" r="3.2" fill="#78a8ff" stroke="#081014"/>
<circle cx="593.2" cy="506.3" r="3.2" fill="#78a8ff" stroke="#081014"/>
<circle cx="643.9" cy="482.3" r="3.2" fill="#78a8ff" stroke="#081014"/>
<circle cx="710.9" cy="400.8" r="3.2" fill="#78a8ff" stroke="#081014"/>
<circle cx="761.6" cy="319.1" r="3.2" fill="#78a8ff" stroke="#081014"/>
<circle cx="812.3" cy="246.8" r="3.2" fill="#78a8ff" stroke="#081014"/>
<circle cx="879.3" cy="178.3" r="3.2" fill="#78a8ff" stroke="#081014"/>
<text x="887.3" y="170.3" fill="#78a8ff" font-size="12" font-family="Inter, Segoe UI, sans-serif">partial</text>
<polyline points="88.0,542.0 138.7,540.2 205.7,544.0 256.4,545.1 307.1,540.4 374.1,545.0 424.8,532.3 475.5,514.9 542.5,523.2 593.2,507.6 643.9,483.4 710.9,420.3 761.6,376.6 812.3,308.1 879.3,229.6 930.0,203.5" fill="none" stroke="#64dcc5" stroke-width="3" stroke-linejoin="round" stroke-linecap="round" filter="url(#glow)"/>
<circle cx="88.0" cy="542.0" r="3.2" fill="#64dcc5" stroke="#081014"/>
<circle cx="138.7" cy="540.2" r="3.2" fill="#64dcc5" stroke="#081014"/>
<circle cx="205.7" cy="544.0" r="3.2" fill="#64dcc5" stroke="#081014"/>
<circle cx="256.4" cy="545.1" r="3.2" fill="#64dcc5" stroke="#081014"/>
<circle cx="307.1" cy="540.4" r="3.2" fill="#64dcc5" stroke="#081014"/>
<circle cx="374.1" cy="545.0" r="3.2" fill="#64dcc5" stroke="#081014"/>
<circle cx="424.8" cy="532.3" r="3.2" fill="#64dcc5" stroke="#081014"/>
<circle cx="475.5" cy="514.9" r="3.2" fill="#64dcc5" stroke="#081014"/>
<circle cx="542.5" cy="523.2" r="3.2" fill="#64dcc5" stroke="#081014"/>
<circle cx="593.2" cy="507.6" r="3.2" fill="#64dcc5" stroke="#081014"/>
<circle cx="643.9" cy="483.4" r="3.2" fill="#64dcc5" stroke="#081014"/>
<circle cx="710.9" cy="420.3" r="3.2" fill="#64dcc5" stroke="#081014"/>
<circle cx="761.6" cy="376.6" r="3.2" fill="#64dcc5" stroke="#081014"/>
<circle cx="812.3" cy="308.1" r="3.2" fill="#64dcc5" stroke="#081014"/>
<circle cx="879.3" cy="229.6" r="3.2" fill="#64dcc5" stroke="#081014"/>
<circle cx="930.0" cy="203.5" r="3.2" fill="#64dcc5" stroke="#081014"/>
<text x="509.0" y="630" fill="#bac9c8" font-size="13" text-anchor="middle" font-family="Inter, Segoe UI, sans-serif">enemy entities (log scale)</text>
<text transform="translate(28 328.5) rotate(-90)" fill="#bac9c8" font-size="13" text-anchor="middle" font-family="Inter, Segoe UI, sans-serif">avg frame time (ms, log scale)</text>
<line x1="950" y1="116" x2="984" y2="116" stroke="#f1c56b" stroke-width="3"/>
<text x="994" y="120" fill="#dce8e5" font-size="12" font-family="Inter, Segoe UI, sans-serif">v0.73.4 old Macroquad release</text>
<line x1="950" y1="139" x2="984" y2="139" stroke="#b792ff" stroke-width="3"/>
<text x="994" y="143" fill="#dce8e5" font-size="12" font-family="Inter, Segoe UI, sans-serif">v0.73.4 old Macroquad debug</text>
<line x1="950" y1="162" x2="984" y2="162" stroke="#e08a48" stroke-width="3" stroke-dasharray="7 5"/>
<text x="994" y="166" fill="#dce8e5" font-size="12" font-family="Inter, Segoe UI, sans-serif">v0.74.8 prior pure-Macroquad release</text>
<line x1="950" y1="185" x2="984" y2="185" stroke="#78a8ff" stroke-width="3"/>
<text x="994" y="189" fill="#dce8e5" font-size="12" font-family="Inter, Segoe UI, sans-serif">v0.74.9 debug executable</text>
<line x1="950" y1="208" x2="984" y2="208" stroke="#64dcc5" stroke-width="3"/>
<text x="994" y="212" fill="#dce8e5" font-size="12" font-family="Inter, Segoe UI, sans-serif">v0.74.9 speed_trace release executable</text>
</svg>